<mxfile host="app.diagrams.net" modified="2024-03-29T03:35:00.816Z" agent="Mozilla/5.0 (Windows NT 10.0; Win64; x64; rv:123.0) Gecko/20100101 Firefox/123.0" etag="wnvQKHKAex-xK4XhDdfC" version="24.2.1" type="device">
  <diagram name="Page-1" id="bImnIfxit2UrzJ3fqXpK">
    <mxGraphModel dx="1434" dy="792" grid="1" gridSize="10" guides="1" tooltips="1" connect="1" arrows="1" fold="1" page="1" pageScale="1" pageWidth="850" pageHeight="1100" math="0" shadow="0">
      <root>
        <mxCell id="0" />
        <mxCell id="1" parent="0" />
        <mxCell id="lXwsVO3mRPHrxcOdsLlA-1" value="&lt;span style=&quot;font-weight: normal;&quot;&gt;&lt;i&gt;&amp;lt;&amp;lt;Controller&amp;gt;&amp;gt;&lt;/i&gt;&lt;/span&gt;&lt;br&gt;Operators" style="swimlane;fontStyle=1;align=center;verticalAlign=top;childLayout=stackLayout;horizontal=1;startSize=40;horizontalStack=0;resizeParent=1;resizeParentMax=0;resizeLast=0;collapsible=1;marginBottom=0;whiteSpace=wrap;html=1;" vertex="1" parent="1">
          <mxGeometry x="345" y="100" width="165" height="74" as="geometry" />
        </mxCell>
        <mxCell id="lXwsVO3mRPHrxcOdsLlA-3" value="" style="line;strokeWidth=1;fillColor=none;align=left;verticalAlign=middle;spacingTop=-1;spacingLeft=3;spacingRight=3;rotatable=0;labelPosition=right;points=[];portConstraint=eastwest;strokeColor=inherit;" vertex="1" parent="lXwsVO3mRPHrxcOdsLlA-1">
          <mxGeometry y="40" width="165" height="8" as="geometry" />
        </mxCell>
        <mxCell id="lXwsVO3mRPHrxcOdsLlA-4" value="+ computeValue(int): double" style="text;strokeColor=none;fillColor=none;align=left;verticalAlign=top;spacingLeft=4;spacingRight=4;overflow=hidden;rotatable=0;points=[[0,0.5],[1,0.5]];portConstraint=eastwest;whiteSpace=wrap;html=1;" vertex="1" parent="lXwsVO3mRPHrxcOdsLlA-1">
          <mxGeometry y="48" width="165" height="26" as="geometry" />
        </mxCell>
      </root>
    </mxGraphModel>
  </diagram>
</mxfile>
